<svg width="16" height="17" viewBox="0 0 16 17" fill="none" xmlns="http://www.w3.org/2000/svg">
<path d="M10.6666 14.75V13.4167C10.6666 12.7094 10.3856 12.0311 9.88554 11.531C9.38544 11.031 8.70716 10.75 7.99992 10.75H3.99992C3.29267 10.75 2.6144 11.031 2.1143 11.531C1.6142 12.0311 1.33325 12.7094 1.33325 13.4167V14.75" stroke="#64748B" stroke-width="1.33333" stroke-linecap="round" stroke-linejoin="round"/>
<path d="M5.99992 8.08333C7.47268 8.08333 8.66659 6.88943 8.66659 5.41667C8.66659 3.94391 7.47268 2.75 5.99992 2.75C4.52716 2.75 3.33325 3.94391 3.33325 5.41667C3.33325 6.88943 4.52716 8.08333 5.99992 8.08333Z" stroke="#64748B" stroke-width="1.33333" stroke-linecap="round" stroke-linejoin="round"/>
<path d="M14.6667 14.75V13.4167C14.6663 12.8258 14.4697 12.2519 14.1077 11.7849C13.7457 11.3179 13.2388 10.9844 12.6667 10.8367" stroke="#64748B" stroke-width="1.33333" stroke-linecap="round" stroke-linejoin="round"/>
<path d="M10.6667 2.83667C11.2404 2.98354 11.7488 3.31714 12.1118 3.78488C12.4749 4.25262 12.672 4.82789 12.672 5.42C12.672 6.01212 12.4749 6.58739 12.1118 7.05513C11.7488 7.52287 11.2404 7.85647 10.6667 8.00334" stroke="#64748B" stroke-width="1.33333" stroke-linecap="round" stroke-linejoin="round"/>
</svg>
